<?xml version="1.0" encoding="UTF-8"?><svg id="b" xmlns="http://www.w3.org/2000/svg" viewBox="0 0 492.86 97.76"><defs><style>.d,.e{fill:#00adee;}.f,.g{fill:#ec297b;}.h{fill:#fff;}.i,.j{fill:#ffd000;}.k,.l{fill:#231f20;}.e,.j,.g{stroke:#fff;}.e,.j,.g,.l{stroke-miterlimit:10;stroke-width:1.35px;}.l{stroke:#231f20;}</style></defs><g id="c"><g><g><polygon class="l" points="330.05 46.25 331.53 56.37 312.69 59.43 313.68 65.79 324.94 64.24 326.61 74.91 313.38 77.04 316.37 94.76 306.01 96.96 298.33 51.59 330.05 46.25"/><path class="l" d="m363.37,62.37c1.42,6.23.77,11.98-1.96,17.23-2.8,5.31-6.99,8.6-12.58,9.88-5.61,1.29-10.81.24-15.59-3.12-4.76-3.37-7.85-8.16-9.28-14.37-1.43-6.27-.78-12.07,1.96-17.36,2.76-5.3,6.94-8.6,12.53-9.87,5.66-1.29,10.85-.23,15.6,3.19,4.79,3.38,7.9,8.19,9.32,14.43m-10.58,1.85c-.71-3.11-2.14-5.56-4.31-7.35-2.28-1.81-4.81-2.39-7.61-1.75-2.84.64-4.88,2.47-6.13,5.45-1.22,2.81-1.47,5.8-.74,8.99.73,3.18,2.21,5.67,4.43,7.45,2.2,1.73,4.73,2.28,7.58,1.63,2.86-.65,4.93-2.46,6.2-5.44,1.12-2.73,1.31-5.73.57-8.98"/><polygon class="l" points="394.83 78.11 370.59 86.68 356.14 43 365.71 40.2 376.44 73.66 391.7 68.13 394.83 78.11"/><path class="l" d="m425.97,52.74c1.57,6.84-2.22,13.27-11.35,19.28-6.31,4.11-13.55,7.28-21.73,9.5l-6.39-45.71c4.15,0,8.09.25,11.84.74,3.74.5,7.31,1.25,10.7,2.25,9.85,2.95,15.49,7.6,16.93,13.94m-10.78,2.92c-1.13-4.95-6.78-7.75-16.92-8.38l2.76,21.22c10.71-2.98,15.44-7.25,14.15-12.84"/><polygon class="l" points="459.45 63.85 431.54 73.65 417.99 30.34 446.45 20.31 449.86 31.09 431.66 37.55 433.98 44.23 445.44 40.27 448.46 49.91 434.94 54.41 436.87 60.52 456.39 53.59 459.45 63.85"/><path class="l" d="m491.32,50.22l.83,10.18c-9.48,1.68-15.95,1.32-19.44-1.07-1.79-1.19-3.59-3.34-5.44-6.46l-2.11.95,1.91,10.39-10.08,2.14-8.19-45.26c7.58-1.29,14.43-1.56,20.55-.81,9.38,1.13,14.76,4.66,16.11,10.6,1.3,5.69-1.57,11.12-8.62,16.29,1.3,2.43,2.89,3.91,4.77,4.47,1.43.43,3.54.31,6.28-.31.37-.09.85-.22,1.43-.41.57-.18,1.24-.42,2-.7m-18.7-16.76c-.95-4.15-5.41-5.58-13.38-4.29l2.72,14.42c8.04-2.69,11.59-6.07,10.66-10.13"/><path class="e" d="m360.67,59.68c1.42,6.23.77,11.98-1.96,17.23-2.8,5.31-6.99,8.6-12.58,9.88-5.61,1.29-10.81.24-15.59-3.12-4.76-3.37-7.85-8.16-9.28-14.37-1.43-6.27-.78-12.07,1.96-17.36,2.76-5.3,6.94-8.6,12.53-9.87,5.66-1.29,10.85-.23,15.6,3.19,4.79,3.38,7.9,8.19,9.32,14.43m-10.58,1.85c-.71-3.11-2.14-5.56-4.31-7.35-2.28-1.81-4.81-2.39-7.61-1.75-2.84.64-4.88,2.47-6.13,5.45-1.22,2.81-1.47,5.8-.75,8.99.73,3.18,2.21,5.67,4.43,7.45,2.2,1.73,4.73,2.28,7.58,1.63,2.86-.65,4.93-2.46,6.2-5.44,1.12-2.73,1.31-5.73.57-8.98"/><g><polygon class="d" points="351.24 39.86 362.1 36.67 372.82 70.09 388.09 64.57 391.62 75.83 366.13 84.85 351.24 39.86"/><path class="h" d="m361.66,37.51l10.73,33.45,15.26-5.52,3.13,9.97-24.24,8.57-14.45-43.67,9.56-2.8m.88-1.66l-1.26.37-9.56,2.8-1.34.39.44,1.32,14.45,43.67.43,1.31,1.3-.46,24.24-8.57,1.23-.43-.39-1.24-3.13-9.97-.42-1.34-1.32.48-13.95,5.04-10.3-32.12-.4-1.25h0Z"/></g><g><polygon class="d" points="413.11 27.22 442.84 16.75 446.65 28.81 428.47 35.26 430.35 40.67 441.83 36.71 445.26 47.64 431.74 52.14 433.26 56.96 452.79 50.02 456.24 61.58 427.06 71.82 413.11 27.22"/><path class="h" d="m442.4,17.62l3.41,10.78-18.2,6.46,2.32,6.68,11.46-3.96,3.03,9.64-13.52,4.5,1.93,6.11,19.52-6.93,3.07,10.26-27.92,9.8-13.54-43.31,28.46-10.02m.87-1.73l-1.31.46-28.46,10.02-1.23.43.39,1.24,13.54,43.31.42,1.33,1.32-.46,27.92-9.8,1.21-.43-.37-1.23-3.07-10.26-.41-1.36-1.34.47-18.2,6.46-1.11-3.52,12.26-4.08,1.26-.42-.4-1.26-3.03-9.64-.42-1.32-1.31.45-10.19,3.52-1.44-4.14,16.94-6.01,1.23-.44-.39-1.24-3.41-10.78-.42-1.33h0Z"/></g><path class="e" d="m487.27,47.52l.83,10.18c-9.48,1.68-15.95,1.32-19.44-1.07-1.79-1.19-3.59-3.34-5.44-6.46l-2.11.95,1.91,10.39-10.08,2.14-8.19-45.26c7.58-1.29,14.43-1.56,20.55-.81,9.38,1.13,14.76,4.66,16.11,10.6,1.3,5.69-1.57,11.12-8.62,16.29,1.3,2.43,2.89,3.91,4.77,4.47,1.43.43,3.54.31,6.28-.31.37-.09.85-.22,1.43-.41.57-.18,1.24-.42,2-.7m-18.7-16.76c-.95-4.15-5.41-5.58-13.38-4.29l2.72,14.42c8.04-2.69,11.59-6.07,10.66-10.13"/><g><polygon class="d" points="293.51 48.34 326.57 42.78 328.25 54.24 309.41 57.29 310.2 62.33 321.46 60.78 323.34 72.77 310.11 74.9 313.09 92.59 301.42 95.07 293.51 48.34"/><path class="h" d="m326.01,43.56l1.48,10.12-18.85,3.06.99,6.36,11.26-1.55,1.68,10.67-13.23,2.14,2.99,17.72-10.35,2.2-7.68-45.37,31.72-5.34m1.13-1.56l-1.36.23-31.72,5.34-1.33.22.23,1.33,7.68,45.37.23,1.38,1.37-.29,10.35-2.2,1.26-.27-.21-1.27-2.76-16.38,11.89-1.92,1.33-.21-.21-1.33-1.68-10.67-.21-1.31-1.31.18-9.95,1.37-.58-3.72,17.53-2.84,1.31-.21-.19-1.31-1.48-10.12-.2-1.36h0Z"/></g><path class="e" d="m421.92,50.04c1.57,6.84-2.22,13.27-11.35,19.28-6.31,4.11-13.55,7.28-21.73,9.5l-6.39-45.71c4.15,0,8.09.25,11.84.74,3.74.5,7.31,1.25,10.7,2.25,9.85,2.95,15.49,7.6,16.93,13.94m-10.78,2.92c-1.13-4.95-6.78-7.75-16.92-8.38l2.76,21.22c10.71-2.98,15.44-7.25,14.15-12.84"/></g><g><path class="l" d="m239.98,50.8c1.96,7.33-1.88,14.43-11.55,21.28-6.67,4.7-14.39,8.4-23.16,11.13l-8.68-49.25c4.51-.16,8.8-.04,12.87.35,4.07.39,7.93,1.07,11.65,2.02,10.78,2.83,17.07,7.64,18.87,14.46m-11.54,3.56c-1.43-5.33-7.64-8.13-18.64-8.42l3.81,22.87c11.46-3.63,16.41-8.44,14.83-14.44"/><polygon class="l" points="272.63 66.51 242.79 78.18 226.47 31.79 256.91 19.86 261.03 31.39 241.54 39.09 244.31 46.23 256.56 41.49 260.22 51.82 245.75 57.21 248.07 63.76 268.92 55.52 272.63 66.51"/><polygon class="l" points="301.1 62.14 275.18 72.32 257.87 25.59 268.12 22.19 281.02 58.01 297.34 51.45 301.1 62.14"/></g><path class="j" d="m235.94,48.1c1.96,7.33-1.88,14.43-11.55,21.28-6.67,4.7-14.39,8.4-23.16,11.13l-8.68-49.25c4.51-.16,8.8-.04,12.87.35,4.07.39,7.93,1.07,11.65,2.02,10.78,2.83,17.07,7.64,18.87,14.46m-11.54,3.56c-1.43-5.33-7.64-8.13-18.64-8.42l3.81,22.87c11.46-3.63,16.41-8.44,14.83-14.44"/><g><polygon class="i" points="221.57 28.71 253.27 16.28 257.84 29.08 238.37 36.77 240.65 42.66 252.92 37.92 257.03 49.52 242.57 54.92 244.42 60.18 265.29 51.94 269.43 64.21 238.34 76.36 221.57 28.71"/><path class="h" d="m252.87,17.17l4.12,11.53-19.49,7.69,2.76,7.14,12.25-4.73,3.66,10.33-14.47,5.39,2.31,6.54,20.85-8.23,3.71,10.98-29.85,11.67-16.32-46.39,30.44-11.93m.8-1.76l-1.29.51-30.44,11.93-1.21.47.43,1.23,16.32,46.39.46,1.32,1.3-.51,29.85-11.67,1.2-.47-.41-1.22-3.71-10.98-.45-1.34-1.32.52-19.55,7.72-1.4-3.97,13.23-4.93,1.24-.46-.44-1.25-3.66-10.33-.46-1.31-1.29.5-11,4.25-1.79-4.64,18.24-7.2,1.21-.48-.44-1.23-4.12-11.53-.47-1.31h0Z"/></g><g><g><path class="l" d="m145.87,83.63l-12.13,4.99-5.7-8.26-9.24,4.69,1.24,8.55-12.6,2.85-4.43-51.45,10.76-3.33,32.1,41.96Zm-23.34-12.26l-7.25-10.59,1.89,13.27,5.36-2.68Z"/><path class="l" d="m203.94,60.47l-12.13,4.99-5.7-8.26-9.24,4.69,1.24,8.55-12.6,2.85-4.43-51.45,10.76-3.33,32.1,41.96Zm-23.34-12.26l-7.25-10.59,1.89,13.27,5.36-2.68Z"/><path class="l" d="m168.34,58.94c1.6,5.89-2.03,11.71-10.86,17.47-5.98,3.8-12.75,6.88-20.28,9.21l-4.39-11.3c.86-.17,1.63-.34,2.31-.49.68-.14,1.27-.29,1.78-.42,1.17-.33,3.82-1.23,7.93-2.71,8.24-3,11.97-5.98,11.17-8.94-.55-2-2.8-2.62-6.78-1.83-3.86.72-6.79,1.27-8.75,1.64-1.96.38-3.03.57-3.2.58-4.95.24-8.7-1.27-11.26-4.48-1.21-1.6-2.07-3.4-2.61-5.38-1.59-5.87,1.86-11.65,10.35-17.33,5.33-3.63,11.89-6.81,19.68-9.53l2.97,13.17c-2.97.82-5.49,1.57-7.55,2.21-2.06.65-3.72,1.22-4.95,1.69-6.46,2.49-9.38,4.88-8.76,7.16.59,2.17,2.66,3.05,6.22,2.63,2.11-.4,4.21-.8,6.3-1.21,2.08-.41,4.18-.81,6.29-1.23,5.35-.56,9.29.73,11.83,3.89,1.16,1.47,2.03,3.21,2.57,5.21"/><path class="l" d="m89.53,38.74l5.77,12.32c-3.47,2.49-6.45,5.22-8.91,8.18-3.55,4.28-4.98,7.97-4.27,11.09.84,3.69,4.01,5.7,9.52,6.03.79.05,1.63.06,2.51.04,2.77-.08,5.95-.54,9.54-1.35.37-.08,1.41-.36,3.12-.82l5.44,11.04c-6.66,1.52-12.57,2.35-17.74,2.51-12.32.36-20.43-3.16-24.32-10.58-.29-.62-.55-1.48-.81-2.58-1.28-5.6.68-12.31,5.89-20.1,3.8-5.58,8.55-10.84,14.26-15.77"/></g><g><g><path class="f" d="m154.97,20.02l11.73-3.63,32.92,43.03-13.44,5.53-5.67-8.22-8.28,4.21,1.26,8.69-13.96,3.16-4.54-52.77Zm15.41,28.51l3.83-1.92-5.19-7.57,1.35,9.49Z"/><path class="h" d="m166.45,17.17l32.1,41.96-12.13,4.99-5.7-8.26-9.24,4.69,1.24,8.55-12.6,2.85-4.43-51.45,10.76-3.33m3.39,32.38l5.36-2.68-7.25-10.59,1.89,13.27m-2.89-33.94l-.9.28-10.76,3.33-1.04.32.09,1.08,4.43,51.45.13,1.54,1.51-.34,12.6-2.85,1.21-.28-.18-1.23-1.1-7.59,7.32-3.72,5.03,7.29.62.89,1.01-.41,12.13-4.99,1.63-.67-1.07-1.4-32.1-41.96-.57-.75h0Zm3.97,31.9l-.81-5.71,3.12,4.55-2.31,1.15h0Z"/></g><path class="g" d="m165.65,57.6c1.6,5.89-2.03,11.71-10.86,17.47-5.98,3.8-12.75,6.88-20.28,9.21l-4.39-11.3c.86-.17,1.63-.34,2.31-.49.68-.14,1.27-.29,1.78-.42,1.17-.33,3.82-1.23,7.93-2.71,8.24-3,11.97-5.98,11.17-8.94-.55-2-2.8-2.62-6.78-1.83-3.86.72-6.79,1.27-8.75,1.64-1.96.38-3.03.57-3.2.58-4.95.24-8.7-1.27-11.26-4.48-1.21-1.6-2.07-3.4-2.61-5.38-1.59-5.87,1.86-11.65,10.35-17.33,5.33-3.63,11.89-6.81,19.68-9.53l2.97,13.17c-2.97.82-5.49,1.57-7.55,2.21-2.06.65-3.72,1.22-4.95,1.69-6.46,2.49-9.38,4.88-8.76,7.16.59,2.17,2.66,3.05,6.22,2.63,2.11-.4,4.21-.8,6.3-1.21,2.08-.41,4.18-.81,6.29-1.23,5.35-.56,9.29.73,11.83,3.89,1.16,1.47,2.03,3.21,2.57,5.21"/><path class="g" d="m86.84,37.39l5.77,12.32c-3.47,2.49-6.45,5.22-8.91,8.18-3.55,4.28-4.98,7.97-4.27,11.09.84,3.69,4.01,5.7,9.52,6.03.79.05,1.63.06,2.51.04,2.77-.08,5.95-.54,9.54-1.35.37-.08,1.41-.36,3.12-.82l5.44,11.04c-6.66,1.52-12.57,2.35-17.74,2.51-12.32.36-20.43-3.16-24.32-10.58-.29-.62-.55-1.48-.81-2.58-1.28-5.6.68-12.31,5.89-20.1,3.8-5.58,8.55-10.84,14.26-15.77"/><g><path class="f" d="m96.9,43.18l11.73-3.63,32.92,43.03-13.44,5.53-5.67-8.22-8.28,4.21,1.26,8.69-13.96,3.16-4.54-52.77Zm15.41,28.51l3.83-1.92-5.19-7.57,1.35,9.49Z"/><path class="h" d="m108.38,40.33l32.1,41.96-12.13,4.99-5.7-8.26-9.24,4.69,1.24,8.55-12.6,2.85-4.43-51.45,10.76-3.33m3.39,32.38l5.36-2.68-7.25-10.59,1.89,13.27m-2.89-33.94l-.9.28-10.76,3.33-1.04.32.09,1.08,4.43,51.45.13,1.54,1.51-.34,12.6-2.85,1.21-.28-.18-1.23-1.1-7.59,7.32-3.72,5.03,7.29.62.89,1.01-.41,12.13-4.99,1.63-.67-1.07-1.4-32.1-41.96-.57-.75h0Zm3.97,31.9l-.81-5.71,3.12,4.55-2.31,1.15h0Z"/></g></g></g><g><g><polygon class="l" points="46.04 66.52 20.7 74.65 7.08 29.04 17.05 26.43 27.15 61.35 43.1 56.1 46.04 66.52"/><path class="l" d="m79.07,60.66l-11.5,3.84-4.74-7.98-8.84,3.73.59,7.98-11.82,1.83-.79-47.81,10.15-2.38,26.94,40.8Zm-20.75-12.82l-6.03-10.24.9,12.38,5.14-2.14Z"/></g><g><g><polygon class="d" points=".84 25.87 12.13 22.92 22.21 57.8 38.17 52.55 41.47 64.26 14.86 72.81 .84 25.87"/><path class="h" d="m11.66,23.73l10.09,34.92,15.96-5.25,2.93,10.41-25.34,8.13L1.69,26.35l9.97-2.61m.93-1.64l-1.27.33-9.97,2.61-1.35.35.4,1.34,13.62,45.61.39,1.32,1.31-.42,25.34-8.13,1.24-.4-.35-1.25-2.93-10.41-.38-1.35-1.34.44-14.63,4.81L12.96,23.36l-.36-1.26h0Z"/></g><g><path class="d" d="m35.91,19.01l11.14-2.61,27.68,41.92-12.85,4.29-4.71-7.95-7.85,3.31.6,8.12-13.2,2.05-.81-49.12Zm12.49,27.29l3.56-1.48-4.18-7.09.62,8.58Z"/><path class="h" d="m46.74,17.17l26.94,40.8-11.5,3.84-4.74-7.98-8.84,3.73.59,7.98-11.82,1.83-.79-47.81,10.15-2.38m1.05,30.12l5.14-2.14-6.03-10.24.9,12.38m-.44-31.65l-.91.21-10.15,2.38-1.06.25.02,1.09.79,47.81.03,1.55,1.53-.24,11.82-1.83,1.23-.19-.09-1.24-.52-7.01,6.86-2.89,4.14,6.97.55.93,1.03-.34,11.5-3.84,1.67-.56-.97-1.47-26.94-40.8-.52-.78h0Zm1.65,29.68l-.35-4.77,2.32,3.95-1.98.83h0Z"/></g></g></g><g><polygon class="i" points="252.95 22.48 264.49 18.65 277.38 54.43 293.7 47.87 297.91 59.83 270.74 70.5 252.95 22.48"/><path class="h" d="m264.08,19.49l12.9,35.82,16.32-6.56,3.76,10.69-25.92,10.18-17.31-46.73,10.26-3.4m.82-1.69l-1.25.41-10.26,3.4-1.32.44.48,1.31,17.31,46.73.48,1.29,1.28-.5,25.92-10.18,1.21-.48-.43-1.23-3.76-10.69-.47-1.33-1.31.53-15.02,6.04-12.43-34.51-.45-1.24h0Z"/></g><path class="k" d="m487.3,7.87c0,4.46-3.5,7.97-8.06,7.97s-8.11-3.5-8.11-7.97,3.6-7.87,8.11-7.87,8.06,3.5,8.06,7.87Zm-14.16,0c0,3.5,2.59,6.29,6.14,6.29s6-2.78,6-6.24-2.54-6.34-6.05-6.34-6.1,2.83-6.1,6.29Zm4.85,4.13h-1.82v-7.87c.72-.14,1.73-.24,3.02-.24,1.49,0,2.16.24,2.74.58.43.34.77.96.77,1.73,0,.86-.67,1.54-1.63,1.82v.1c.77.29,1.2.86,1.44,1.92.24,1.2.38,1.68.58,1.97h-1.97c-.24-.29-.38-1.01-.62-1.92-.14-.86-.62-1.25-1.63-1.25h-.86v3.17Zm.05-4.46h.86c1.01,0,1.82-.34,1.82-1.15,0-.72-.53-1.2-1.68-1.2-.48,0-.82.05-1.01.1v2.26Z"/></g></g></svg>